<?xml version="1.0" encoding="UTF-8" standalone="no"?>
<!DOCTYPE svg PUBLIC "-//W3C//DTD SVG 1.1//EN" "http://www.w3.org/Graphics/SVG/1.1/DTD/svg11.dtd">
<svg version="1.1" xmlns="http://www.w3.org/2000/svg" xmlns:xlink="http://www.w3.org/1999/xlink" preserveAspectRatio="xMidYMid meet" viewBox="0 0 60 60" width="60" height="60"><defs><path d="M39 59C36.2 59 13.8 59 11 59C8.8 59 7 57.2 7 55C7 50 7 10 7 5C7 2.8 8.8 1 11 1C14.6 1 43.4 1 47 1C49.2 1 51 2.8 51 5C51 9.2 51 42.8 51 47C51 49.2 49.73 52.27 48.17 53.83C48.02 53.98 47.23 54.77 45.83 56.17C42.74 58.06 40.47 59 39 59Z" id="b2C50VhbOJ"></path><path d="M43 31C40.2 31 17.8 31 15 31C13.9 31 13 30.1 13 29C13 27 13 11 13 9C13 7.9 13.9 7 15 7C17.8 7 40.2 7 43 7C44.1 7 45 7.9 45 9C45 10.33 45 17 45 29C44.4 30.33 43.73 31 43 31Z" id="aQGjytm5c"></path><path d="M21 41L13 41" id="cy9IX37It"></path><path d="M17 37L17 45" id="a2CAT8D6dL"></path><path d="M30 53L34 51" id="aDHPZuaPA"></path><path d="M23 53L27 51" id="a1hmhLfs7p"></path><path d="M35 40C33.9 40 33 40.9 33 42C33 43.1 33.9 44 35 44C36.1 44 37 43.1 37 42C37 40.9 36.1 40 35 40Z" id="c3bbesUm0i"></path><path d="M43 37C41.9 37 41 37.9 41 39C41 40.1 41.9 41 43 41C44.1 41 45 40.1 45 39C45 37.9 44.1 37 43 37Z" id="c2insFkvor"></path><path d="M13 7L45 7L45 31L13 31L13 7Z" id="bEbCwMo55"></path><path d="M11.12 12.88C11.12 13.56 10.68 14.13 10.12 14.13C9.57 14.13 9.12 13.56 9.12 12.88C9.12 12.19 9.57 11.63 10.12 11.63C10.68 11.63 11.12 12.19 11.12 12.88Z" id="c9hJgCfGL"></path></defs><g><g><g><use xlink:href="#b2C50VhbOJ" opacity="1" fill="#000000" fill-opacity="0"></use><g><use xlink:href="#b2C50VhbOJ" opacity="1" fill-opacity="0" stroke="#000000" stroke-width="2" stroke-opacity="1"></use></g></g><g><use xlink:href="#aQGjytm5c" opacity="1" fill="#000000" fill-opacity="0"></use><g><use xlink:href="#aQGjytm5c" opacity="1" fill-opacity="0" stroke="#000000" stroke-width="2" stroke-opacity="1"></use></g></g><g><use xlink:href="#cy9IX37It" opacity="1" fill="#000000" fill-opacity="0"></use><g><use xlink:href="#cy9IX37It" opacity="1" fill-opacity="0" stroke="#000000" stroke-width="2" stroke-opacity="1"></use></g></g><g><use xlink:href="#a2CAT8D6dL" opacity="1" fill="#000000" fill-opacity="0"></use><g><use xlink:href="#a2CAT8D6dL" opacity="1" fill-opacity="0" stroke="#000000" stroke-width="2" stroke-opacity="1"></use></g></g><g><use xlink:href="#aDHPZuaPA" opacity="1" fill="#000000" fill-opacity="0"></use><g><use xlink:href="#aDHPZuaPA" opacity="1" fill-opacity="0" stroke="#000000" stroke-width="2" stroke-opacity="1"></use></g></g><g><use xlink:href="#a1hmhLfs7p" opacity="1" fill="#000000" fill-opacity="0"></use><g><use xlink:href="#a1hmhLfs7p" opacity="1" fill-opacity="0" stroke="#000000" stroke-width="2" stroke-opacity="1"></use></g></g><g><use xlink:href="#c3bbesUm0i" opacity="1" fill="#000000" fill-opacity="0"></use><g><use xlink:href="#c3bbesUm0i" opacity="1" fill-opacity="0" stroke="#000000" stroke-width="2" stroke-opacity="1"></use></g></g><g><use xlink:href="#c2insFkvor" opacity="1" fill="#000000" fill-opacity="0"></use><g><use xlink:href="#c2insFkvor" opacity="1" fill-opacity="0" stroke="#000000" stroke-width="2" stroke-opacity="1"></use></g></g><g><use xlink:href="#bEbCwMo55" opacity="1" fill="#85ce29" fill-opacity="1"></use></g><g><use xlink:href="#c9hJgCfGL" opacity="1" fill="#ed0303" fill-opacity="1"></use></g></g></g></svg>