<?xml version="1.0" ?><svg viewBox="0 0 32 32" xmlns="http://www.w3.org/2000/svg"><title/><g data-name="open mail" id="open_mail"><path d="M30,9.8a2.58,2.58,0,0,0-.1-1.26A2.18,2.18,0,0,0,27.79,7H26V6a3,3,0,0,0-3-3H9A3,3,0,0,0,6,6V7H4.21A2.18,2.18,0,0,0,2.14,8.54,2.58,2.58,0,0,0,2,9.8,1.18,1.18,0,0,0,2,10V22a7,7,0,0,0,7,7H23a7,7,0,0,0,7-7V10A1.18,1.18,0,0,0,30,9.8ZM27.79,9c.1,0,.16.13.18.19a.47.47,0,0,1-.11.51L26,11.17V9ZM9,5H23a1,1,0,0,1,1,1v6.74L16.07,19a.1.1,0,0,1-.14,0L8,12.74V6A1,1,0,0,1,9,5ZM4,9.19c0-.06.08-.19.18-.19H6v2.17L4.14,9.7A.47.47,0,0,1,4,9.19ZM23,27H9a5,5,0,0,1-5-5V12.14l7.53,5.92L6.29,23.29a1,1,0,0,0,0,1.42,1,1,0,0,0,1.42,0l5.4-5.41,1.59,1.24a2.07,2.07,0,0,0,2.6,0l1.59-1.24,5.4,5.41a1,1,0,0,0,1.42,0,1,1,0,0,0,0-1.42l-5.24-5.24L28,12.14V22A5,5,0,0,1,23,27Z"/><path d="M10,8H22a1,1,0,0,0,0-2H10a1,1,0,0,0,0,2Z"/><path d="M10,12H22a1,1,0,0,0,0-2H10a1,1,0,0,0,0,2Z"/><path d="M18,14H14a1,1,0,0,0,0,2h4a1,1,0,0,0,0-2Z"/></g></svg>