<?xml version="1.0" ?><svg contentScriptType="text/ecmascript" contentStyleType="text/css" height="60.000000px" preserveAspectRatio="xMidYMid meet" version="1.0" viewBox="0 0 60.000000 60.000000" width="60.000000px" xmlns="http://www.w3.org/2000/svg" xmlns:xlink="http://www.w3.org/1999/xlink" zoomAndPan="magnify"><g><path d="M 45.828003 56.171997 C 44.272003 57.728027 41.199997 59.0 39.0 59.0 h -28.0 c -2.2 0.0 -4.0 -1.8 -4.0 -4.0 v -50.0 c 0.0 -2.2 1.8 -4.0 4.0 -4.0 h 36.0 c 2.2 0.0 4.0 1.8 4.0 4.0 v 42.0 c 0.0 2.2 -1.273 5.273 -2.828 6.828 L 45.828003 56.171997 z" fill="none" stroke="#000000" stroke-linecap="round" stroke-linejoin="round" stroke-miterlimit="10" stroke-width="2"/><path d="M 45.0 29.0 c 0.0 1.1 -0.9 2.0 -2.0 2.0 h -28.0 c -1.1 0.0 -2.0 -0.9 -2.0 -2.0 v -20.0 c 0.0 -1.1 0.9 -2.0 2.0 -2.0 h 28.0 c 1.1 0.0 2.0 0.9 2.0 2.0 V 29.0 z" fill="none" stroke="#000000" stroke-linecap="round" stroke-linejoin="round" stroke-miterlimit="10" stroke-width="2"/><line fill="none" stroke="#000000" stroke-linecap="round" stroke-linejoin="round" stroke-miterlimit="10" stroke-width="2" x1="21.0" x2="13.0" y1="41.0" y2="41.0"/><line fill="none" stroke="#000000" stroke-linecap="round" stroke-linejoin="round" stroke-miterlimit="10" stroke-width="2" x1="17.0" x2="17.0" y1="37.0" y2="45.0"/><line fill="none" stroke="#000000" stroke-linecap="round" stroke-linejoin="round" stroke-miterlimit="10" stroke-width="2" x1="30.0" x2="34.0" y1="53.0" y2="51.0"/><line fill="none" stroke="#000000" stroke-linecap="round" stroke-linejoin="round" stroke-miterlimit="10" stroke-width="2" x1="23.0" x2="27.0" y1="53.0" y2="51.0"/><circle cx="35.0" cy="42.0" fill="none" r="2" stroke="#000000" stroke-linecap="round" stroke-linejoin="round" stroke-miterlimit="10" stroke-width="2"/><circle cx="43.0" cy="39.0" fill="none" r="2" stroke="#000000" stroke-linecap="round" stroke-linejoin="round" stroke-miterlimit="10" stroke-width="2"/></g></svg>