<?xml version="1.0" ?><svg enable-background="new 0 0 26 26" id="Слой_1" version="1.1" viewBox="0 0 26 26" xml:space="preserve" xmlns="http://www.w3.org/2000/svg" xmlns:xlink="http://www.w3.org/1999/xlink"><g><path d="M22.4228516,15.3789063c-0.3010254-0.5202637-0.7860107-0.8934326-1.3671265-1.0493164   c-0.0010986-0.0003052-0.0018921-0.0011597-0.0029907-0.0014648l-3.6026611-0.965271   C19.0561523,12.9390259,20.25,11.4871826,20.25,9.75c0-0.0133057-0.006897-0.0244141-0.0075684-0.0375366   c-0.0006104-0.0126343,0.0049438-0.0239258,0.0036621-0.0366821l-0.5-5   c-0.0006104-0.0062256-0.0045776-0.0110474-0.0053711-0.0172119C19.6907959,2.6342773,18.0360718,1,16,1h-6   C7.9639282,1,6.309082,2.6343384,6.2592163,4.6586304C6.2584229,4.6647949,6.2545166,4.6696167,6.2539063,4.6757813l-0.5,5   C5.7526245,9.6885376,5.7581787,9.6998291,5.7575684,9.7124634C5.756897,9.7255859,5.75,9.7366943,5.75,9.75   c0,1.7371826,1.1938477,3.1890259,2.7999268,3.612854l-3.6026611,0.965271   c-0.0010986,0.0003052-0.0018921,0.0011597-0.0029907,0.0014648c-0.5811157,0.1558838-1.0661011,0.5290527-1.3671265,1.0493164   c-0.3007813,0.5214844-0.3808594,1.1298828-0.2246094,1.7119141c0.0004272,0.0015869,0.0015869,0.0027466,0.0020142,0.0043335   c0.15625,0.5805664,0.5289307,1.0650024,1.0487671,1.3657837C4.75,18.6611328,5.1357422,18.7636719,5.5263672,18.7636719   c0.1962891,0,0.3945313-0.0263672,0.5888672-0.078125l3.0199585-0.809021l-0.1085205,0.4050903   c-0.000061,0.0002441-0.0002441,0.0003662-0.0003052,0.0006104l-1.0390625,3.8779297   c-0.3222656,1.2001953,0.3925781,2.4394531,1.5947266,2.7626953c0.1943359,0.0517578,0.3925781,0.078125,0.5888672,0.078125   c0.390625,0,0.7763672-0.1025391,1.1230469-0.3027344c0.5198364-0.3007813,0.8925171-0.7852173,1.0487671-1.3657227   c0.0004272-0.0015869,0.0015869-0.0028076,0.0020142-0.0043945L13,20.8825684l0.6552734,2.4455566   c0.0004272,0.0015869,0.0015869,0.0028076,0.0020142,0.0043945c0.15625,0.5805054,0.5289307,1.0649414,1.0487671,1.3657227   c0.3466797,0.2001953,0.7324219,0.3027344,1.1230469,0.3027344c0.1962891,0,0.3945313-0.0263672,0.5888672-0.078125   c1.2021484-0.3232422,1.9169922-1.5625,1.5947266-2.7626953l-1.0390625-3.8779297   c-0.000061-0.0002441-0.0002441-0.0003662-0.0003052-0.0006104l-0.1133423-0.4229736l3.020874,0.8259277   c0.0009155,0.0002441,0.001709,0.0001221,0.0026245,0.0003662c0.0004883,0.0001221,0.0007935,0.0004883,0.0012817,0.0006104   c0.1943359,0.0517578,0.3925781,0.078125,0.5888672,0.078125c0.390625,0,0.7763672-0.1025391,1.1230469-0.3027344   c0.5198364-0.3007813,0.8925171-0.7852173,1.0487671-1.3657837c0.0004272-0.0015869,0.0015869-0.0027466,0.0020142-0.0043335   C22.8037109,16.5087891,22.7236328,15.9003906,22.4228516,15.3789063z M7.25177,9.7674561l0.4943237-4.9432373   c0.0012817-0.0127563-0.0042725-0.0240479-0.0036621-0.0366821C7.743103,4.7744141,7.75,4.7633057,7.75,4.75   C7.75,3.5097656,8.7597656,2.5,10,2.5h6c1.2402344,0,2.25,1.0097656,2.25,2.25c0,0.0133057,0.006897,0.0244141,0.0075684,0.0375366   c0.0006104,0.0126343-0.0049438,0.0239258-0.0036621,0.0366821L18.74823,9.7674561C18.7385254,10.9994507,17.7342529,12,16.5,12h-7   C8.2657471,12,7.2614746,10.9994507,7.25177,9.7674561z M20.8466797,17.1611328   c-0.1746826,0.1005249-0.3776245,0.12677-0.5728149,0.0751953L16.2089844,16.125   c-0.0333252-0.0088501-0.0656128-0.0020142-0.098877-0.0062866c-0.0339355-0.0046997-0.0641479-0.0200806-0.0993652-0.0200806   c-0.0183105,0-0.0336914,0.0091553-0.0516968,0.010437c-0.0496216,0.00354-0.0949097,0.0158691-0.1421509,0.0287476   c-0.0477295,0.0131226-0.0940552,0.0245972-0.1375122,0.0463867c-0.0424194,0.0210571-0.0779419,0.0494995-0.1157227,0.078064   c-0.0383301,0.0292969-0.0756836,0.0564575-0.107666,0.0924072c-0.0314941,0.0351563-0.0541382,0.0756226-0.0787964,0.1168823   c-0.0259399,0.0432739-0.050415,0.085144-0.0672607,0.1334839c-0.0057373,0.0164185-0.0181274,0.0283203-0.0228271,0.0453491   c-0.0093994,0.0343018-0.0024414,0.067688-0.006897,0.1019897c-0.0043945,0.0328979-0.0194702,0.0621338-0.0194702,0.0962524   v0.7392578c0,0.0336304,0.0148926,0.0623779,0.019165,0.0948486c0.0042725,0.0334473-0.0027466,0.06604,0.0062256,0.0994873   l1.2773438,4.7666016c0.1083984,0.4023438-0.1318359,0.8173828-0.5341797,0.9248047   c-0.1962891,0.0517578-0.3994141,0.0253906-0.5732422-0.0751953c-0.1747437-0.1005859-0.2996216-0.2636108-0.3515015-0.4578857   c-0.0001221-0.0003662,0.000061-0.0007324-0.000061-0.0010986l-1.0390625-3.8779297   c-0.0047607-0.0179443-0.0175781-0.0306396-0.0235596-0.0479126c-0.0160522-0.0462036-0.0386353-0.0864258-0.0629272-0.1281128   c-0.0258789-0.0449219-0.0510254-0.0878906-0.0848999-0.1258545c-0.0272827-0.0303955-0.0584717-0.053833-0.090271-0.0794678   c-0.0435181-0.0350952-0.0862427-0.0675659-0.1365356-0.092041c-0.0361328-0.0177612-0.0743408-0.0274048-0.1134644-0.0392456   c-0.0535889-0.0160522-0.105896-0.0293579-0.1630859-0.032959c-0.017395-0.0012207-0.0321655-0.0100708-0.0498657-0.0100708   h-0.6816406c-0.0175781,0-0.0323486,0.0087891-0.0496216,0.0100098c-0.0560303,0.0036011-0.1072998,0.0167236-0.1599731,0.0323486   c-0.0408936,0.012146-0.0806885,0.0223389-0.1183472,0.0409546c-0.0476685,0.0234375-0.0880737,0.0544434-0.1297607,0.0874634   c-0.0343628,0.0272217-0.0678101,0.0523682-0.0969238,0.085083c-0.0324097,0.036438-0.0562744,0.0778198-0.0813599,0.1206665   c-0.0252686,0.0427856-0.0487061,0.0841064-0.0651855,0.1317749c-0.0059204,0.0170898-0.0186768,0.0296021-0.0234375,0.0473633   l-1.0390625,3.8779297c-0.0001221,0.0003662,0.000061,0.0007324-0.000061,0.0010986   c-0.0518799,0.1942749-0.1767578,0.3572998-0.3515015,0.4578857c-0.1748047,0.1005859-0.3769531,0.1269531-0.5732422,0.0751953   c-0.4023438-0.1074219-0.6425781-0.5224609-0.5341797-0.9248047l1.2773438-4.7666016   c0.0089722-0.0334473,0.0019531-0.06604,0.0062256-0.0994873c0.0042725-0.0324707,0.019165-0.0612183,0.019165-0.0948486   v-0.7167969c0-0.0336304-0.0148926-0.0623779-0.019165-0.0948486c-0.0042725-0.0334473,0.0027466-0.065979-0.0062256-0.0994873   c-0.0047607-0.0178833-0.0175781-0.0306396-0.0235596-0.0479126c-0.0160522-0.0462646-0.0386353-0.0865479-0.0629883-0.1282349   c-0.0258789-0.0449829-0.0510864-0.0879517-0.0849609-0.1259155c-0.0270996-0.0302734-0.0581665-0.0535278-0.0898438-0.0790405   c-0.0438843-0.0354004-0.0869141-0.0681152-0.1375732-0.0927734c-0.0353394-0.017334-0.0726318-0.0267334-0.1107788-0.0383911   c-0.0546265-0.0165405-0.1080322-0.0300293-0.1664429-0.0336304c-0.0169067-0.0011597-0.03125-0.0097656-0.0484619-0.0097656   c-0.0332031,0-0.0615845,0.0147095-0.093689,0.0189209c-0.0339355,0.0043335-0.0664673-0.0026855-0.100647,0.0064697   l-4.0683594,1.0898438c-0.1972656,0.0517578-0.3994141,0.0253906-0.5732422-0.0751953   c-0.1747437-0.1005859-0.2996216-0.2636108-0.3515015-0.4578857c-0.0001221-0.0003662,0.000061-0.0007324-0.000061-0.0010986   c-0.0527344-0.1953125-0.0263672-0.3984375,0.0751953-0.5732422c0.1005249-0.1746826,0.2634277-0.2996826,0.4576416-0.3513794   c0.0004272-0.0001221,0.0009155-0.000061,0.0013428-0.0001831l4.8476563-1.2988281   c0.6473999-0.1743164,1.1001587-0.527771,1.3461304-0.9785156h2.9405518   c0.2459717,0.4507446,0.6987305,0.8041992,1.3461304,0.9785156l4.8476563,1.2988281   c0.0004272,0.0001221,0.0009155,0.000061,0.0013428,0.0001831c0.1942139,0.0516968,0.3571167,0.1766968,0.4576416,0.3513794   c0.1015625,0.1748047,0.1279297,0.3779297,0.0751953,0.5732422c-0.0001221,0.0003662,0.000061,0.0007324-0.000061,0.0010986   C21.1463013,16.897522,21.0214233,17.0605469,20.8466797,17.1611328z" fill="#1D1D1B"/><circle cx="10.5" cy="8" fill="#1D1D1B" r="1.25"/><circle cx="15.5" cy="8" fill="#1D1D1B" r="1.25"/></g></svg>