<?xml version="1.0" ?><svg viewBox="0 0 32 32" xmlns="http://www.w3.org/2000/svg"><title/><g id="mail"><path d="M30,8.8a2.58,2.58,0,0,0-.1-1.26A2.18,2.18,0,0,0,27.79,6H4.21a2.19,2.19,0,0,0-2,1.45A1,1,0,0,0,2,8V21a7,7,0,0,0,7,7H23a7,7,0,0,0,7-7V9A1.18,1.18,0,0,0,30,8.8ZM4,8.19c0-.06.08-.19.18-.19H27.79c.1,0,.16.13.18.19a.47.47,0,0,1-.11.51L16.07,18a.1.1,0,0,1-.14,0L4.14,8.7A.47.47,0,0,1,4,8.19ZM23,26H9a5,5,0,0,1-5-5V11.14l7.53,5.92L6.29,22.29a1,1,0,0,0,0,1.42,1,1,0,0,0,1.42,0l5.4-5.41,1.59,1.24a2.07,2.07,0,0,0,2.6,0l1.59-1.24,5.4,5.41a1,1,0,0,0,1.42,0,1,1,0,0,0,0-1.42l-5.24-5.23L28,11.14V21A5,5,0,0,1,23,26Z"/></g></svg>